<svg width="119" height="162" fill="none" xmlns="http://www.w3.org/2000/svg"><path d="M59.557 4.273c-7.873.462-10.953 8.662-11.866 10.51-.913 1.848-1.027 3.926-1.255 6.005-.228 2.08-.456 4.158-1.483 6.006-1.711 2.772-5.362 4.273-6.39 7.391-1.14 3.58 1.712 7.276 1.028 10.972-.457 1.963-1.826 3.58-2.282 5.544-.57 1.963 0 4.157 1.027 6.005 2.624 4.504 7.872 6.699 13.006 6.93 5.135.23 10.155-1.386 14.947-2.888m27.724-46.196c-.798 1.732 0 3.696 1.141 5.082 1.255 1.385 2.853 2.31 4.222 3.464 1.369 1.155 2.738 2.657 2.852 4.504.114 1.733-.684 3.35-.456 5.082.57 4.273 7.416 5.659 7.758 9.932.228 2.888-2.738 5.544-1.825 8.316.342 1.039 1.141 1.847 1.711 2.887 1.94 3.234.571 7.738-2.168 10.278-2.852 2.541-6.731 3.465-10.382 3.58-3.195.116-6.732-.346-8.557-3.002-1.712-2.31-1.37-5.544-1.027-8.43 1.597-13.513 1.369-27.257 1.027-40.885" fill="#263238"/><path d="M61.61 77.148c.115-7.16 0-14.552 0-14.552s-9.013-1.617-10.724-13.628c-1.712-11.433 1.14-36.033 1.14-36.033 13.122-5.197 27.84-3.234 36.967 7.507l-1.369 57.745c-.114 6.699-6.047 11.896-13.12 11.665-7.189-.23-12.893-5.89-12.893-12.704z" fill="#FFBE9D"/><path d="M54.423 31.76c0 .808.57 1.501 1.483 1.617.799 0 1.483-.578 1.597-1.386 0-.808-.57-1.501-1.483-1.617-.799 0-1.483.578-1.597 1.386z" fill="#263238"/><path d="M52.027 30.605c.228.231 1.369-.693 2.966-.577 3.08.462 2.967.924 2.967.693.114-.116-.114-.462-.57-.809-.457-.346-1.37-.808-2.397-.808a4.552 4.552 0 00-2.396.693c-.456.346-.684.693-.57.808zm19.168 1.732c0 .809.57 1.502 1.483 1.617.798 0 1.483-.577 1.597-1.386 0-.808-.57-1.5-1.483-1.616a1.393 1.393 0 00-1.597 1.385z" fill="#263238"/><path d="M69.027 31.183c.228.23 1.369-.693 2.966-.578 1.598 0 2.853.809 2.967.693.114-.115-.114-.462-.57-.808-.457-.347-1.37-.809-2.397-.809a4.552 4.552 0 00-2.396.693c-.456.347-.684.693-.57.809zM62.98 43.078c0-.115-1.027-.23-2.624-.462-.457 0-.799-.115-.913-.462-.114-.346.114-.808.342-1.27.457-1.04.799-2.079 1.255-3.234 1.712-4.504 3.08-8.315 2.853-8.315-.229-.116-1.712 3.58-3.537 8.084-.457 1.155-.799 2.194-1.255 3.234-.114.462-.457 1.04-.229 1.617.114.346.457.577.685.577.228.116.456.116.684.116 1.712.115 2.739.115 2.739.115z" fill="#263238"/><path d="M61.61 62.48s7.987.578 15.86-4.041c0 0-3.88 8.2-15.745 6.929l-.114-2.887zm2.054-15.475c.57-.809 1.598-1.155 2.624-1.04.685.116 1.37.462 1.826 1.04.456.577.456 1.386.114 1.963-.456.578-1.369.809-2.168.578-.798-.231-1.483-.809-2.053-1.27-.229-.116-.343-.347-.457-.463-.114-.346-.114-.577.114-.808z" fill="#EB996E"/><path d="M67.772 44.233c-.228 0-.343 1.732-1.826 3.003-1.483 1.27-3.423 1.04-3.423 1.27 0 .116.457.347 1.255.347.8 0 1.94-.231 2.853-.924C67.544 47.12 68 46.08 68 45.388c.114-.693-.114-1.155-.228-1.155zm16.087-32.337c-4.336 6.236-15.745 12.704-23.96 14.09.913-1.27 5.933-4.39 6.96-5.66-3.765 2.772-9.013 6.583-13.92 6.814-.57 0-1.255 0-1.71-.23-.685-.347-.8-1.155-.914-1.848-.342-2.888-.114-7.97.343-10.857.456-2.887 1.825-5.774 4.221-7.737 3.195-2.426 7.644-3.119 11.98-3.234 3.537-.116 7.302.115 10.497 1.386 3.308 1.27 6.047 3.926 6.503 6.93" fill="#263238"/><path d="M96.295 39.844c.57-3.118 1.027-6.005 1.141-7.969.342-6.12-1.369-28.872-22.362-27.14l-.913 6.468s-3.195 22.174 10.382 22.29c0 0 .8 6.582 6.96 13.05-.114 0 3.423-.116 4.792-6.699z" fill="#263238"/><path d="M84.544 33.492c1.255-.23 2.624-.23 3.765.347 1.14.462 2.282 1.386 2.738 2.54.456 1.156.456 2.541 0 3.812-.456 1.27-1.255 2.31-2.168 3.234-.684.693-1.369 1.27-2.282 1.501-.912.231-1.94.115-2.624-.462" fill="#FFBE9D"/><path d="M85.114 41.346c-.114 0 .342.808 1.597.577.57-.115 1.141-.577 1.484-1.27.342-.578.57-1.27.684-2.079.114-.808-.114-1.617-.456-2.31-.457-.577-1.027-1.04-1.598-1.04-1.14 0-1.597.81-1.483.81.114.115.57-.347 1.37-.116.798.115 1.483 1.155 1.254 2.54-.114 1.27-.684 2.541-1.369 2.772-.912.347-1.369 0-1.483.116z" fill="#EB996E"/><path d="M86.825 9.586c1.598.924 3.537 1.155 5.363.693 1.825-.462 3.423-1.733 4.335-3.35.57-1.039.913-2.31.685-3.464-.456-1.617-1.94-2.657-3.537-3.119-2.282-.577-4.906 0-6.617 1.617-1.712 1.617-2.51 4.274-1.712 6.583.799 2.31 3.08 3.927 5.477 3.812m-2.054 31.644c-1.14.808-2.396 1.732-3.309 2.887-.912 1.155-1.597 2.541-1.369 4.042.114.809.343 1.617.228 2.426-.114 1.155-1.026 1.963-1.711 2.887-1.483 2.425-.913 5.89 1.027 7.969 1.94 2.079 4.906 3.118 7.758 3.234 1.712 0 3.423-.231 4.792-1.155 1.94-1.386 2.738-4.042 2.738-6.468" fill="#263238"/><path d="M90.134 14.32c.114 0-.342.925-1.255 2.195-.913 1.27-2.282 2.887-3.993 4.504-1.826 1.502-3.651 2.657-5.02 3.35-1.37.692-2.282.924-2.282.924-.114-.232 3.423-1.617 6.96-4.736 3.422-3.118 5.476-6.352 5.59-6.236zm2.168-.115c.114 0 0 1.155-.342 2.888-.457 1.732-1.255 4.157-2.624 6.583-1.484 2.425-3.081 4.273-4.45 5.428-1.37 1.155-2.282 1.732-2.396 1.732-.114-.115 3.537-2.772 6.39-7.507 2.737-4.62 3.194-9.24 3.422-9.124zm-45.638 9.586c.228 0 .457 1.963 1.027 4.389.685 2.31 1.483 4.157 1.37 4.273-.115.115-1.256-1.617-1.94-4.042-.57-2.541-.57-4.62-.457-4.62zm50.43 40.884c0-.115.57.577 1.711.577.57 0 1.369-.115 2.054-.692.685-.463 1.255-1.27 1.483-2.31.228-1.04.228-2.195 0-3.465s-.684-2.54-1.141-3.927c-.456-1.386-.798-3.002-.456-4.62.228-1.732 1.369-3.118 1.825-4.619.571-1.501.343-3.234-.342-4.504-.684-1.502-1.825-2.425-3.194-3.003a9.95 9.95 0 01-1.94-.924c-.57-.346-1.255-.808-1.597-1.386-.685-1.27-.685-2.54-.685-3.58 0-1.155.114-2.079-.114-2.887-.228-.809-.456-1.502-.913-1.964-.798-.923-1.597-.924-1.483-.924h.456c.343.116.799.347 1.255.809.457.462.799 1.155 1.027 2.079.228.924.228 1.963.228 3.002 0 1.04 0 2.31.685 3.35.684 1.04 1.94 1.501 3.309 2.079 1.369.462 2.738 1.616 3.422 3.118.685 1.501 1.027 3.35.343 4.966-.571 1.617-1.598 3.003-1.826 4.504-.228 1.502.114 3.003.457 4.389.456 1.386.912 2.771 1.141 4.042.228 1.27.228 2.54-.115 3.696-.342 1.154-.912 1.963-1.711 2.54-.799.462-1.597.693-2.168.578-.684 0-1.14-.231-1.369-.462-.342-.347-.342-.462-.342-.462zm-8.329-.808s.114.346.685.577c.456.231 1.597.231 2.167-.578.57-.923.57-2.31-.228-3.58-.684-1.27-1.94-2.54-2.282-4.504-.228-.924 0-1.963.685-2.656.57-.693 1.255-1.155 1.597-1.732.913-1.155.913-2.541.799-3.696-.114-1.155-.457-1.964-.685-2.657-.228-.577-.342-.923-.228-.923 0 0 .228.346.456.923.229.578.685 1.502.8 2.657.227 1.155.227 2.772-.8 4.042-.456.693-1.14 1.155-1.597 1.732-.456.578-.684 1.386-.456 2.195.228 1.616 1.483 2.887 2.168 4.388.684 1.386.798 3.119 0 4.158-.343.577-1.027.808-1.484.808-.456 0-.912 0-1.255-.23-.342-.462-.342-.924-.342-.924zM44.04 60.864l-.913-.924c-.57-.693-1.369-1.617-1.94-3.003-.341-.693-.456-1.617-.456-2.54a4.4 4.4 0 011.027-2.773c.685-.808 1.712-1.27 2.396-2.078.685-.809.685-1.848.457-3.003-.228-1.04-.799-2.079-1.255-3.003-.457-.924-.913-1.963-1.141-3.003-.229-1.04 0-2.194.57-2.887.57-.808 1.141-1.27 1.712-1.848 1.14-.924 1.825-1.963 1.94-2.772.113-.808-.115-1.27 0-1.27 0 0 .113.115.227.346.114.231.114.578.114 1.04-.114.924-.798 2.079-1.94 3.118-.57.578-1.14 1.04-1.596 1.848-.457.693-.685 1.617-.457 2.54.114.925.57 1.849 1.141 2.888.456.924 1.027 1.963 1.37 3.234.227 1.155.227 2.54-.571 3.465-.799.924-1.826 1.27-2.396 2.078-.57.693-.913 1.617-.913 2.426 0 .808.114 1.617.342 2.31.57 1.385 1.255 2.31 1.826 3.002.228.347.57.809.456.809z" fill="#455A64"/><path d="M91.617 11.087c-.114.116-.912-1.732-2.738-3.003-1.825-1.386-3.65-1.732-3.65-1.847 0-.116 2.053-.116 3.992 1.385 1.94 1.386 2.625 3.465 2.396 3.465z" fill="#E8505B"/><path d="M93.329 0c.114 0 .456.462.799 1.27.342.924.456 2.195.114 3.696-.343 1.386-1.255 2.54-1.94 3.118-.685.578-1.255.809-1.255.693 0-.115.456-.346 1.027-1.04.57-.692 1.255-1.616 1.711-2.886.343-1.27.228-2.541.114-3.35C93.443.577 93.215 0 93.33 0z" fill="#455A64"/><path d="M8.5 140l15.574-36.675 19.624 12.473L30 140H8.5z" fill="#EB996E"/><path d="M40.731 77.379c9.128-4.85 20.88-6.237 20.88-6.237 3.423 6.93 14.261 7.854 20.765 3.119l5.476-3.811s.799 0 2.282.115c12.893 1.155 23.504 10.856 26.128 23.791.912 4.62 1.711 10.048 1.369 15.014-.685 12.588-13.577 13.743-13.577 13.743S103.799 128.952 103 139c-7 0-4.88-.618-11.725 2.5-5.02 2.31-.463-2.5-17.275-2.5H43c1.94-12.011-5.12-15.194-5.349-15.887v-.231l-12.779-11.549-7.302-6.121c.114 0 15.974-23.906 23.161-27.833z" fill="#5E81F4"/><path d="M56.59 85.117c0 .115-1.14-.924-3.194-.924a5.49 5.49 0 00-3.309 1.155c-.456.462-.913 1.04-1.483 1.617-.456.577-1.14 1.27-2.054 1.386-.912.23-1.825-.231-2.396-.693-.684-.462-1.255-.924-1.825-1.27-1.141-.694-2.396-.578-3.309-.347-.913.346-1.597.924-1.94 1.386-.342.462-.456.808-.57.693 0 0 0-.347.342-.924.343-.462.913-1.155 1.94-1.617 1.027-.462 2.51-.578 3.765.23.685.347 1.255.81 1.826 1.156.57.346 1.255.693 1.94.577.684-.115 1.254-.693 1.71-1.155.457-.577.913-1.155 1.598-1.617 1.14-.923 2.51-1.154 3.65-1.154 1.142 0 1.94.346 2.397.692.684.578.913.809.913.809zm13.007 17.208c-.114.116-.798-1.155-2.738-1.848a4.96 4.96 0 00-3.423 0c-.57.231-1.255.693-1.825 1.04-.685.346-1.483.808-2.396.693-.913-.116-1.598-.809-2.054-1.386-.456-.578-.913-1.27-1.37-1.733-.798-1.04-2.053-1.386-3.08-1.386-1.026 0-1.825.347-2.282.693-.456.347-.684.578-.798.578 0 0 .114-.347.57-.693a4.727 4.727 0 012.396-.924c1.027-.116 2.51.23 3.537 1.386l1.37 1.732c.456.578 1.026 1.04 1.71 1.155.685.116 1.37-.231 2.054-.577.685-.347 1.255-.809 1.94-1.04 1.37-.462 2.738-.346 3.765.116a4.343 4.343 0 012.054 1.501c.456.347.57.693.57.693zm28.866-25.177c0 .115-1.255-.578-3.309-.231-1.026.231-2.167.808-2.966 1.848-.456.462-.685 1.155-1.141 1.848a4.385 4.385 0 01-1.711 1.848c-.913.346-1.826.115-2.51-.116-.685-.23-1.37-.577-2.054-.808-1.255-.462-2.51-.116-3.309.462-.913.577-1.369 1.27-1.597 1.732a6.91 6.91 0 00-.343.808s0-.346.115-.924a4.058 4.058 0 011.597-1.963c.913-.577 2.282-1.04 3.765-.577.685.23 1.37.577 2.054.808.684.231 1.369.347 2.053.116.685-.231 1.141-.924 1.484-1.502.342-.693.684-1.386 1.14-1.963.913-1.155 2.282-1.733 3.31-1.848 1.026-.231 1.939 0 2.51.115.684.116.912.231.912.347zm-13.349 18.94c-.114.116-.57-.923-2.054-1.5-.684-.232-1.711-.347-2.624-.116-.456.115-.913.462-1.483.693-.57.23-1.14.577-1.94.461-.684-.115-1.255-.692-1.597-1.154-.342-.462-.684-1.04-.913-1.386-.57-.809-1.483-1.155-2.281-1.155-1.598 0-2.282.808-2.396.808 0 0 .114-.23.456-.577a3.517 3.517 0 011.94-.578c.798 0 1.94.347 2.738 1.27l1.027 1.387c.342.462.684.808 1.255.924 1.026.23 2.053-.809 3.08-1.04 1.141-.346 2.168-.115 2.967.231 1.483.578 1.94 1.733 1.825 1.733zm-29.436 15.938c-.114.116-.57-.924-2.054-1.501-.684-.231-1.711-.347-2.624-.116-.456.116-.913.462-1.483.693-.57.231-1.141.578-1.94.462-.684-.115-1.255-.693-1.597-1.155-.342-.462-.685-1.039-.913-1.386-.57-.808-1.483-1.154-2.282-1.154-1.597 0-2.282.808-2.396.808 0 0 .114-.231.457-.577a3.516 3.516 0 011.94-.578 3.75 3.75 0 012.737 1.27l1.027 1.386c.343.462.685.809 1.255.924 1.027.231 2.054-.808 3.08-1.039 1.142-.347 2.169-.116 2.967.231 1.598.577 1.94 1.732 1.826 1.732zm27.496.347c0 .115-.798-.693-2.396-.693-.798 0-1.71.115-2.51.808-.342.347-.798.693-1.14 1.155-.457.462-.913.924-1.712 1.04-.799.115-1.369-.231-1.94-.578l-1.369-1.039c-.798-.578-1.825-.578-2.51-.347-1.483.462-1.94 1.617-1.94 1.502 0 0 0-.231.229-.693.228-.347.799-.924 1.597-1.271.799-.346 1.94-.346 2.967.231l1.369 1.04c.456.346.912.577 1.483.462 1.027-.116 1.711-1.386 2.624-2.079.913-.693 2.054-.809 2.852-.809 1.712.347 2.51 1.271 2.396 1.271zm-9.013 12.704c0 .115-.799-.693-2.396-.693-.799 0-1.711.115-2.51.808-.342.347-.799.693-1.14 1.155-.457.462-.914.924-1.712 1.04-.799.115-1.37-.231-1.94-.578l-1.37-1.039c-.798-.578-1.825-.578-2.51-.347-1.482.462-1.939 1.617-1.939 1.502 0 0 0-.231.229-.693.228-.347.798-.924 1.597-1.271.798-.346 1.94-.346 2.966.231l1.37 1.04c.456.346.912.577 1.483.462 1.026-.116 1.711-1.386 2.624-2.079.913-.693 2.053-.809 2.852-.809 1.712.231 2.396 1.271 2.396 1.271z" fill="#FAFAFA" fill-opacity=".8"/><path d="M3.537 67.793c.684.809 25.785 34.763 25.785 34.763l-3.537 2.079L0 71.027l3.537-3.234z" fill="#263238"/><path d="M101.429 91.93s-23.503 41.116-25.1 41.809c-3.08 1.501-39.248-30.144-42.671-33.146-.457-.693-1.483-1.964-3.423-4.736 0 0-2.852-13.165-5.933-12.126-3.08 1.04 1.711 6.698-.342 11.665-1.94 4.966-11.067-6.93-11.41-7.97l-2.282-3.118s-2.396 7.045-2.281 9.933c.57 9.47 9.355 20.557 9.355 20.557s35.712 45.388 62.866 46.889c7.758.462 22.705-22.289 31.946-39.036 5.591-10.163 2.967-20.442-6.275-27.255l-4.45-3.465z" fill="#FFBE9D"/><path d="M12.436 96.088c-.114 0-1.027-1.385-2.053-3.349-.913-1.963-1.484-3.58-1.37-3.58.115 0 .8 1.617 1.712 3.465.913 1.848 1.825 3.349 1.711 3.465z" fill="#EB996E"/><path d="M101.289 80.497c-.913.578-22.82 41.692-22.82 41.692l28.182 22.29s7.302-18.247 11.181-33.146c1.027-4.042.457-14.782-1.027-18.94-7.305-15.393-5.248-4.389-10.04-7.854l-5.476-4.042z" fill="#5E81F4"/><path d="M101.5 140h7l1 3-3 2.5-5.5-4 .5-1.5z" fill="#fff"/><path opacity=".7" d="M108.732 80.035c.57.347.798.462.798.462l-.456-.115c-.114 0-.342-.231-.571-.347a2.485 2.485 0 00-.413-.249c.241.085.454.173.642.25z" fill="#000"/><path d="M101.087 119.071c-.114.116-.57-.924-2.053-1.501-.685-.231-1.712-.347-2.625-.116-.456.116-.912.462-1.483.693-.57.231-1.14.578-1.94.462-.684-.115-1.255-.693-1.597-1.155-.342-.462-.684-1.039-.912-1.386-.571-.808-1.484-1.154-2.282-1.154-1.598 0-2.282.808-2.396.808 0 0 .114-.231.456-.577a3.517 3.517 0 011.94-.578c.798 0 1.94.347 2.738 1.27l1.027 1.386c.342.462.684.809 1.255.924 1.027.231 2.053-.808 3.08-1.039 1.141-.347 2.168-.116 2.967.231 1.597.577 1.939 1.732 1.825 1.732zm12.893-5.312c-.114 0-.342-1.04-1.597-1.964-.571-.462-1.484-.808-2.51-.808-.457 0-1.027.231-1.598.346-.57.116-1.255.231-1.939-.115-.685-.347-1.027-1.04-1.255-1.617-.229-.578-.343-1.155-.571-1.617-.342-.924-1.141-1.501-1.94-1.732-1.483-.462-2.51.231-2.51.115 0 0 .115-.231.571-.346.456-.231 1.141-.347 1.939-.116.799.231 1.826.809 2.282 1.964.229.577.343 1.039.571 1.616.228.578.456 1.04.913 1.271.912.462 2.167-.231 3.308-.231s2.168.462 2.739 1.039c1.597 1.04 1.711 2.195 1.597 2.195zm.684-16.978c-.114 0-.342-1.039-1.597-1.963-.57-.462-1.483-.808-2.51-.808-.456 0-1.027.23-1.597.346-.571.116-1.255.231-1.94-.115-.684-.347-1.027-1.04-1.255-1.617-.228-.578-.342-1.155-.57-1.617-.343-.924-1.141-1.502-1.94-1.733-1.483-.461-2.51.231-2.51.116 0 0 .114-.231.57-.347.457-.23 1.141-.346 1.94-.115.799.231 1.826.809 2.282 1.963.228.578.342 1.04.57 1.617.229.578.457 1.04.913 1.27.913.463 2.168-.23 3.309-.23s2.168.462 2.738 1.04c1.597 1.038 1.712 2.194 1.597 2.194zm-6.275 39.036c-.114 0-.342-1.039-1.597-1.963-.571-.462-1.483-.808-2.51-.808-.457 0-1.027.231-1.597.346-.571.116-1.255.231-1.94-.115-.685-.347-1.027-1.04-1.255-1.617-.228-.578-.342-1.155-.57-1.617-.343-.924-1.142-1.502-1.94-1.732-1.483-.462-2.51.23-2.51.115 0 0 .114-.231.57-.346.457-.231 1.141-.347 1.94-.116.798.231 1.825.808 2.282 1.963.228.578.342 1.04.57 1.617.228.578.457 1.04.913 1.271.913.462 2.168-.231 3.309-.231s2.167.462 2.738 1.039c1.711 1.04 1.711 2.31 1.597 2.194z" fill="#FAFAFA" fill-opacity=".8"/></svg>