<svg width="186" height="42" fill="none" xmlns="http://www.w3.org/2000/svg"><path d="M82.313 24.323v-5.238c0-1.977-1.307-3.307-3.41-3.325a3.459 3.459 0 00-1.732.343 3.316 3.316 0 00-1.311 1.145 3.136 3.136 0 00-1.22-1.123 3.276 3.276 0 00-1.643-.365 2.954 2.954 0 00-1.437.298 2.836 2.836 0 00-1.096.945v-1.047h-1.886v8.367h1.904V19.69c0-1.453.832-2.221 2.12-2.221 1.29 0 1.886.786 1.886 2.204v4.651h1.893V19.69c0-1.453.869-2.221 2.12-2.221 1.253 0 1.904.786 1.904 2.204v4.651h1.908zm28.167-8.36h-3.08v-2.536h-1.904v2.536h-1.759v1.662h1.759v3.81c0 1.942.778 3.098 3.008 3.098a4.552 4.552 0 002.356-.646l-.543-1.558a3.58 3.58 0 01-1.669.472c-.94 0-1.252-.559-1.252-1.397v-3.779h3.08l.004-1.662zm16.079-.21a2.627 2.627 0 00-1.316.31 2.513 2.513 0 00-.967.916v-1.016h-1.868v8.36h1.886v-4.686c0-1.397.615-2.152 1.849-2.152.404-.005.805.066 1.18.21l.579-1.715a4.158 4.158 0 00-1.343-.227zm-24.309.873a6.663 6.663 0 00-3.536-.873c-2.193 0-3.619 1.017-3.619 2.675 0 1.366 1.05 2.204 2.99 2.466l.886.122c1.032.14 1.524.402 1.524.873 0 .646-.688 1.017-1.976 1.017a4.734 4.734 0 01-2.895-.873l-.858 1.414a6.412 6.412 0 003.753 1.086c2.501 0 3.952-1.139 3.952-2.728 0-1.47-1.144-2.238-3.026-2.5l-.886-.122c-.815-.105-1.47-.262-1.47-.821 0-.611.615-.978 1.65-.978.949.014 1.878.26 2.7.716l.811-1.474zm50.493-.873a2.63 2.63 0 00-1.317.31 2.52 2.52 0 00-.967.916v-1.016h-1.867v8.36h1.885v-4.686c0-1.397.616-2.152 1.85-2.152.404-.005.804.066 1.18.21l.579-1.715a4.158 4.158 0 00-1.343-.227zm-24.28 4.39c0 2.536 1.831 4.39 4.621 4.39a4.644 4.644 0 003.116-.999l-.904-1.47a3.9 3.9 0 01-2.266.75c-1.505 0-2.609-1.068-2.609-2.674 0-1.607 1.107-2.658 2.609-2.675a3.9 3.9 0 012.266.75l.904-1.47a4.645 4.645 0 00-3.116-.999c-2.79 0-4.621 1.855-4.621 4.39v.007zm17.654 0v-4.19h-1.886v1.016c-.321-.4-.738-.72-1.214-.934a3.388 3.388 0 00-1.522-.292c-2.428 0-4.343 1.837-4.343 4.39s1.904 4.39 4.343 4.39a3.389 3.389 0 001.522-.293 3.266 3.266 0 001.214-.933v1.012h1.886v-4.166zm-7.014 0c0-1.47.995-2.675 2.627-2.675 1.56 0 2.61 1.156 2.61 2.675 0 1.52-1.05 2.675-2.61 2.675-1.632 0-2.627-1.208-2.627-2.675zm-22.75-4.39c-2.533 0-4.313 1.785-4.313 4.39 0 2.658 1.849 4.39 4.44 4.39a5.388 5.388 0 003.554-1.173l-.923-1.348a4.223 4.223 0 01-2.533.873c-1.216 0-2.32-.542-2.591-2.047h6.434c.018-.227.036-.454.036-.698 0-2.606-1.686-4.39-4.114-4.39l.01.003zm-.036 1.628c1.216 0 1.994.733 2.193 2.029h-4.491c.199-1.209.959-2.03 2.302-2.03h-.004zm47.283 2.762v-7.54h-1.885v4.373c-.322-.4-.738-.72-1.214-.934a3.388 3.388 0 00-1.522-.292c-2.429 0-4.343 1.837-4.343 4.39s1.903 4.39 4.343 4.39a3.389 3.389 0 001.522-.293 3.275 3.275 0 001.214-.933v1.013h1.885v-4.174zm2.204 3.409a.567.567 0 01.514.325.506.506 0 01-.119.58.557.557 0 01-.395.157.576.576 0 01-.311-.087.544.544 0 01-.21-.238.506.506 0 010-.413.541.541 0 01.297-.282.584.584 0 01.231-.042h-.007zm0 .943a.425.425 0 00.301-.12.41.41 0 00-.301-.705.43.43 0 00-.335.152.399.399 0 00.028.553.442.442 0 00.314.119h-.007zm.033-.664a.237.237 0 01.152.042.133.133 0 01.041.051.13.13 0 01.013.064.13.13 0 01-.043.102.21.21 0 01-.12.048l.167.185h-.131l-.155-.185h-.051v.185h-.109v-.488l.236-.004zm-.127.09v.134h.127a.125.125 0 00.068 0 .057.057 0 00.02-.022.065.065 0 000-.055.057.057 0 00-.02-.021.125.125 0 00-.068 0l-.127-.035zm-9.116-3.778c0-1.47.995-2.675 2.627-2.675 1.56 0 2.609 1.156 2.609 2.675 0 1.52-1.049 2.675-2.609 2.675-1.632 0-2.627-1.208-2.627-2.675zm-63.66 0v-4.19H91.05v1.016a3.269 3.269 0 00-1.21-.926 3.388 3.388 0 00-1.515-.29c-2.428 0-4.343 1.837-4.343 4.39s1.904 4.39 4.343 4.39a3.388 3.388 0 001.522-.292 3.27 3.27 0 001.214-.934v1.013h1.885l-.01-4.177zm-7.013 0c0-1.47.995-2.675 2.627-2.675 1.56 0 2.61 1.156 2.61 2.675 0 1.52-1.05 2.675-2.61 2.675-1.632 0-2.627-1.205-2.627-2.675z" fill="#fff"/><path d="M44.52 10.204h-11.4v19.77h11.4v-19.77z" fill="#FF5F00"/><path d="M33.843 20.095A12.19 12.19 0 0135.15 14.6a12.647 12.647 0 013.668-4.389 13.29 13.29 0 00-6.66-2.615 13.443 13.443 0 00-7.085 1.192 12.882 12.882 0 00-5.35 4.638 12.25 12.25 0 00-1.984 6.67c0 2.36.688 4.67 1.985 6.67a12.87 12.87 0 005.349 4.638 13.444 13.444 0 007.084 1.193 13.29 13.29 0 006.661-2.616 12.648 12.648 0 01-3.67-4.39 12.19 12.19 0 01-1.306-5.496z" fill="#EB001B"/><path d="M59.9 20.094c0 2.36-.688 4.67-1.985 6.67a12.88 12.88 0 01-5.35 4.638 13.442 13.442 0 01-7.085 1.192 13.29 13.29 0 01-6.661-2.617 12.667 12.667 0 003.667-4.39 12.21 12.21 0 001.311-5.495 12.21 12.21 0 00-1.31-5.495 12.666 12.666 0 00-3.668-4.39A13.29 13.29 0 0145.48 7.59a13.443 13.443 0 017.085 1.193 12.88 12.88 0 015.35 4.64 12.25 12.25 0 011.984 6.671zm-1.252 7.785v-.405h.17v-.08h-.424v.083h.17v.405l.084-.003zm.836 0v-.49h-.113l-.152.35-.152-.35h-.133v.49h.076v-.367l.14.318h.098l.142-.318v.37l.094-.003z" fill="#F79E1B"/></svg>