<svg width="77" height="39" fill="none" xmlns="http://www.w3.org/2000/svg"><g clip-path="url(#clip0)"><path d="M37.741 23.817h1.205v2.599h.87l1.563-2.599h1.317l-1.875 3.05v.021l1.987 3.328h-1.362l-1.607-2.792h-.87v2.792h-1.206v-6.4h-.022v.001zm7.767 1.697c1.45 0 2.634 1.01 2.634 2.405 0 1.417-1.16 2.405-2.611 2.405-1.451 0-2.612-.988-2.612-2.405-.022-1.417 1.138-2.405 2.59-2.405zm3.57.107h1.14v3.608h1.495v-3.607h1.138v3.607h1.495v-3.607h1.139v4.594h-6.362V25.62h-.044zm9.777-.107c1.361 0 2.12.966 2.12 2.17a3.083 3.083 0 01-.044.45H57.65c.067.794.714 1.224 1.428 1.224.491 0 .982-.215 1.362-.494l.468.816c-.49.407-1.227.665-1.919.665-1.585 0-2.567-1.095-2.567-2.405 0-1.438 1.004-2.426 2.433-2.426zm2.678 3.736c.58-.086 1.004-.558 1.004-2.19v-1.438h3.483v4.594h-1.184v-3.672h-1.16v.515c0 1.997-.558 3.157-2.143 3.2v-1.01.001zm7.879-3.736c1.36 0 2.12.966 2.12 2.17a3.069 3.069 0 01-.045.45h-3.28c.067.794.714 1.224 1.428 1.224.49 0 .982-.215 1.361-.494l.47.816c-.492.407-1.229.665-1.92.665-1.585 0-2.567-1.095-2.567-2.405 0-1.438 1.005-2.426 2.433-2.426zm3.102.107h1.183v1.761h.58l1.16-1.76h1.318l-1.518 2.19v.021l1.696 2.383H75.55l-1.25-1.867h-.625v1.867h-1.184V25.62h.023zm-27.005 3.715c.78 0 1.428-.58 1.428-1.439 0-.837-.647-1.439-1.43-1.439-.78 0-1.405.581-1.405 1.44 0 .858.625 1.438 1.407 1.438zM59.77 27.34c0-.601-.424-.966-.96-.966-.602 0-1.049.386-1.16.966h2.12zm10.557 0c0-.601-.424-.966-.96-.966-.603 0-1.05.386-1.16.966h2.12z" fill="#fff"/><path d="M54.413 9.881v10.844a.284.284 0 01-.089.215.305.305 0 01-.223.086h-2.299a.316.316 0 01-.222-.086.293.293 0 01-.09-.215V9.881a.284.284 0 01.09-.214.305.305 0 01.222-.086h2.3a.316.316 0 01.222.086.292.292 0 01.09.214zm17.945-.3a.54.54 0 01.312.129c.067.064.067.171.045.257l-3.794 10.866a.307.307 0 01-.115.139.326.326 0 01-.175.054h-2.054c-.133 0-.245-.064-.29-.193l-2.21-6.335-2.21 6.334a.308.308 0 01-.114.14.326.326 0 01-.176.054h-2.053c-.134 0-.246-.064-.29-.194L55.439 9.967c-.022-.086-.022-.172.045-.257.045-.086.157-.129.245-.129h2.567c.134 0 .246.085.29.214l2.031 6.42 2.233-6.42a.307.307 0 01.114-.139.326.326 0 01.175-.054h1.808c.134 0 .246.064.29.193l2.233 6.42 2.03-6.42a.296.296 0 01.109-.153.316.316 0 01.182-.061h2.566zm3.883 0c.156 0 .29.129.312.3v10.844a.284.284 0 01-.089.215.307.307 0 01-.223.086h-2.299a.315.315 0 01-.222-.086.294.294 0 01-.09-.215V9.881a.284.284 0 01.09-.214.307.307 0 01.222-.086h2.3zM50.151 20.64c.134.15.022.364-.18.364H47.16a.373.373 0 01-.29-.128l-.469-.558c-.982.6-2.143.966-3.37.966-3.437 0-6.227-2.684-6.227-5.991 0-3.307 2.79-5.992 6.227-5.992 3.437 0 6.227 2.685 6.227 5.992a5.861 5.861 0 01-.982 3.242l1.875 2.104v.001zM26.648 25.9c.581.215.804 1.052.849 1.417.09.666-.111.924-.335.924-.223 0-.536-.258-.87-.773-.335-.516-.47-1.095-.29-1.396.11-.194.356-.279.647-.171zm-3.392 2.427c.357 0 .76.15 1.116.45.692.56.893 1.203.536 1.676-.201.236-.536.386-.915.386-.38 0-.781-.128-1.049-.365-.625-.515-.803-1.375-.402-1.846.156-.194.402-.3.714-.3zm-7.81 6.206C6.962 34.533.09 27.919.09 19.759S6.964 4.986 15.444 4.986c8.482 0 15.356 6.614 15.356 14.773 0 2.77-.803 5.369-2.164 7.58-.045.065-.157.043-.18-.043-.535-3.629-2.834-5.626-6.181-6.227-.291-.043-.335-.215.044-.258 1.027-.086 2.477-.064 3.236.065.044-.366.067-.752.067-1.138 0-5.39-4.553-9.771-10.155-9.771-5.602 0-10.155 4.38-10.155 9.77s4.553 9.772 10.155 9.772h.469a12.69 12.69 0 01-.201-2.642c.022-.601.156-.688.424-.215 1.406 2.34 3.415 4.445 7.343 5.282 3.214.688 6.428 1.482 9.887 5.712.312.365-.156.752-.513.451-3.526-3.006-6.74-3.994-9.664-3.994-3.281.022-5.513.43-7.768.43h.001zM44.57 18.235l-1.228-1.44c-.133-.15-.022-.386.179-.386h2.589c.134-.343.2-.73.2-1.116 0-1.782-1.383-3.329-3.28-3.329-1.897 0-3.282 1.547-3.282 3.329 0 1.782 1.385 3.307 3.282 3.307.535.021 1.071-.13 1.54-.365z" fill="#FF8C00"/></g><defs><clipPath id="clip0"><path fill="#fff" transform="translate(0 .917)" d="M0 0h77v37.375H0z"/></clipPath></defs></svg>