<svg width="130" height="25" fill="none" xmlns="http://www.w3.org/2000/svg"><g clip-path="url(#clip0)"><path d="M6.261 13.294l-3.628 7.87H0l3.975-8.416C2.106 11.828.859 10.163.859 7.094.859 2.78 3.678.625 7.03.625h3.413v20.54H8.159v-7.87H6.261zm1.898-10.8H6.942c-1.834-.003-3.618 1.176-3.618 4.6 0 3.304 1.63 4.367 3.62 4.367h1.218l-.003-8.967z" fill="red"/><path d="M21.457 6.687v14.477h-2.285v-6.492H15.73v6.492h-2.314V6.688h2.314v6.157h3.442V6.687h2.285zm11.899 17.321h-2.077v-2.843h-6.41v2.843h-2.076v-4.681h.92c1.364-3.074 1.513-7.554 1.513-11.404V6.687h6.944v12.64h1.188l-.002 4.681zM29.89 8.495h-2.589v.26c0 3.044-.148 7.496-1.393 10.57h3.977l.005-10.83zm9.852 12.87c-3.086 0-4.984-2.383-4.984-6.834 0-4.656 1.336-8.046 4.511-8.046 2.493 0 4.126 1.81 4.126 6.723v1.236h-6.242c0 3.275.95 4.998 2.79 4.998a5.309 5.309 0 002.937-.978l.535 1.723a6.016 6.016 0 01-3.68 1.179h.007zm-2.559-8.76h3.829c0-2.47-.416-4.282-1.75-4.282-1.425 0-1.93 1.696-2.079 4.281zm10.89 1.348v7.212H45.76V6.687h2.313v6.693l3.591-6.693h2.344l-3.712 6.808 4.244 7.667h-2.52l-3.947-7.209zm6.778-.026c0-4.54 1.812-7.442 5.311-7.442a4.818 4.818 0 012.76.748l-.327 2.125c-.624-.518-1.512-1.006-2.475-1.006-1.663 0-2.849 1.809-2.849 5.457 0 3.65.891 5.688 2.76 5.688a3.857 3.857 0 002.522-.891l.534 1.677a4.62 4.62 0 01-3.116 1.092c-3.205-.01-5.12-2.508-5.12-7.448zm23.977 7.238h-9.08l-.208 3.418h-1.158v-4.595h.623c1.04-.834 1.542-3.131 1.84-6.061.296-3.045.385-7.586.475-13.302h7.424v19.363h1.455v4.595h-1.158l-.213-3.418zM77.257 1.8h-4.601c-.09 5.2-.248 9.164-.475 12.123-.268 3.074-.743 5.113-1.542 6.062h6.618V1.8zm9.083 18.47a3.913 3.913 0 001.702-.427c.526-.27.98-.653 1.324-1.122l.445 1.09c-.41.52-.941.938-1.55 1.222a4.436 4.436 0 01-1.951.416c-3.176 0-4.63-2.786-4.63-7.525 0-4.739 1.84-7.525 4.355-7.525 2.581 0 4.242 2.614 3.769 7.758h-6.759c.06 3.958 1.129 6.114 3.294 6.114zm-3.275-7.187h5.445c.247-3.847-.95-5.572-2.475-5.572-1.564.01-2.841 1.962-2.97 5.572zm15.888 1.1h-5.105v6.982h-1.394V6.687h1.394v6.396h5.105V6.687h1.394v14.477h-1.394v-6.98zm4.693-7.496h1.393v5.371h1.099c2.848 0 4.687 1.493 4.687 4.511 0 3.074-1.958 4.596-4.776 4.596h-2.403V6.687zm1.393 6.435V20.1h.891c2.106 0 3.531-1.004 3.531-3.505 0-2.442-1.237-3.477-3.383-3.477l-1.039.003zm9.555-5.309v13.351h-1.363V6.688h6.32v1.126h-4.957zm14.07 3.27c.005-.662.044-1.323.118-1.981h-.089a12.548 12.548 0 01-.802 1.866l-4.865 10.197h-1.188V6.687h1.307v10.062c0 .776-.06 1.406-.119 2.039h.089a15.58 15.58 0 01.802-1.917l4.865-10.184h1.216v14.477h-1.334v-10.08z" fill="#fff"/></g><defs><clipPath id="clip0"><path fill="#fff" transform="translate(0 .625)" d="M0 0h130v23.958H0z"/></clipPath></defs></svg>