<svg width="37" height="36" fill="none" xmlns="http://www.w3.org/2000/svg"><path d="M21.817 32.843l.005-10.297a.996.996 0 01.788-.823l10.321.011c.395.057.714-.299.789-.823l.021-5.748c.057-.393-.3-.712-.825-.787l-10.321-.012a.998.998 0 01-.826-.787l.005-10.298c.056-.393-.3-.711-.826-.787l-5.76-.025c-.395-.057-.714.299-.79.823l-.004 10.298a.996.996 0 01-.788.823l-10.322-.012c-.394-.056-.713.299-.788.823l-.022 5.748c-.056.393.3.712.826.787l10.321.012c.394.056.75.375.825.787l-.004 10.298c-.056.393.3.712.825.787l5.762.025a.996.996 0 00.788-.823z" fill="#FDD08D"/></svg>